<svg style="position: absolute; width: 0; height: 0; overflow: hidden;" version="1.1" xmlns="http://www.w3.org/2000/svg" xmlns:xlink="http://www.w3.org/1999/xlink">

	<symbol id="icon-category" viewBox="0 0 512 512">
		<title>category</title>
		<path d="m452 276h-116c-33.084 0-60 26.916-60 60v116c0 33.084 26.916 60 60 60h116c33.084 0 60-26.916 60-60v-116c0-33.084-26.916-60-60-60zm20 176c0 11.028-8.972 20-20 20h-116c-11.028 0-20-8.972-20-20v-116c0-11.028 8.972-20 20-20h116c11.028 0 20 8.972 20 20zm-296-176h-116c-33.084 0-60 26.916-60 60v116c0 33.084 26.916 60 60 60h116c33.084 0 60-26.916 60-60v-116c0-33.084-26.916-60-60-60zm20 176c0 11.028-8.972 20-20 20h-116c-11.028 0-20-8.972-20-20v-116c0-11.028 8.972-20 20-20h116c11.028 0 20 8.972 20 20zm-20-452h-116c-33.084 0-60 26.916-60 60v116c0 33.084 26.916 60 60 60h116c33.084 0 60-26.916 60-60v-116c0-33.084-26.916-60-60-60zm20 176c0 11.028-8.972 20-20 20h-116c-11.028 0-20-8.972-20-20v-116c0-11.028 8.972-20 20-20h116c11.028 0 20 8.972 20 20zm256-176h-116c-33.084 0-60 26.916-60 60v116c0 33.084 26.916 60 60 60h116c33.084 0 60-26.916 60-60v-116c0-33.084-26.916-60-60-60zm20 176c0 11.028-8.972 20-20 20h-116c-11.028 0-20-8.972-20-20v-116c0-11.028 8.972-20 20-20h116c11.028 0 20 8.972 20 20z"></path>
	</symbol>

	<symbol id="icon-down-arrow" viewBox="0 0 128 128">
		<title>down arrow</title>
		<path  d="m64 88c-1.023 0-2.047-.391-2.828-1.172l-40-40c-1.563-1.563-1.563-4.094 0-5.656s4.094-1.563 5.656 0l37.172 37.172 37.172-37.172c1.563-1.563 4.094-1.563 5.656 0s1.563 4.094 0 5.656l-40 40c-.781.781-1.805 1.172-2.828 1.172z" ></path>
	</symbol>

	<symbol id="icon-search" viewBox="0 0 6.3499999 6.3500002">
		<title>search</title>
		<g transform="translate(0 -290.65)"><path d="m2.8944091 291.16099c-1.3119941 0-2.38073328 1.06874-2.38073328 2.38074 0 1.31199 1.06873918 2.3828 2.38073328 2.3828.5603925 0 1.0757805-.19638 1.4831137-.52245l.9916707.99115a.26516505.26516505 0 0 0 .375171-.37465l-.9916708-.99167c.3263411-.40796.5229654-.92414.5229654-1.48518 0-1.312-1.0692559-2.38074-2.38125-2.38074zm0 .52917c1.0260113 0 1.8515666.82556 1.8515666 1.85157s-.8255553 1.85363-1.8515666 1.85363-1.8515666-.82762-1.8515666-1.85363.8255553-1.85157 1.8515666-1.85157z"></path></g>
	</symbol>

	<symbol id="icon-love" viewBox="0 0 512.001 512">
		<path  d="m256 455.515625c-7.289062 0-14.316406-2.640625-19.792969-7.4375-20.683593-18.085937-40.625-35.082031-58.21875-50.074219l-.089843-.078125c-51.582032-43.957031-96.125-81.917969-127.117188-119.3125-34.644531-41.804687-50.78125-81.441406-50.78125-124.742187 0-42.070313 14.425781-80.882813 40.617188-109.292969 26.503906-28.746094 62.871093-44.578125 102.414062-44.578125 29.554688 0 56.621094 9.34375 80.445312 27.769531 12.023438 9.300781 22.921876 20.683594 32.523438 33.960938 9.605469-13.277344 20.5-24.660157 32.527344-33.960938 23.824218-18.425781 50.890625-27.769531 80.445312-27.769531 39.539063 0 75.910156 15.832031 102.414063 44.578125 26.191406 28.410156 40.613281 67.222656 40.613281 109.292969 0 43.300781-16.132812 82.9375-50.777344 124.738281-30.992187 37.398437-75.53125 75.355469-127.105468 119.308594-17.625 15.015625-37.597657 32.039062-58.328126 50.167969-5.472656 4.789062-12.503906 7.429687-19.789062 7.429687zm-112.96875-425.523437c-31.066406 0-59.605469 12.398437-80.367188 34.914062-21.070312 22.855469-32.675781 54.449219-32.675781 88.964844 0 36.417968 13.535157 68.988281 43.882813 105.605468 29.332031 35.394532 72.960937 72.574219 123.476562 115.625l.09375.078126c17.660156 15.050781 37.679688 32.113281 58.515625 50.332031 20.960938-18.253907 41.011719-35.34375 58.707031-50.417969 50.511719-43.050781 94.136719-80.222656 123.46875-115.617188 30.34375-36.617187 43.878907-69.1875 43.878907-105.605468 0-34.515625-11.605469-66.109375-32.675781-88.964844-20.757813-22.515625-49.300782-34.914062-80.363282-34.914062-22.757812 0-43.652344 7.234374-62.101562 21.5-16.441406 12.71875-27.894532 28.796874-34.609375 40.046874-3.453125 5.785157-9.53125 9.238282-16.261719 9.238282s-12.808594-3.453125-16.261719-9.238282c-6.710937-11.25-18.164062-27.328124-34.609375-40.046874-18.449218-14.265626-39.34375-21.5-62.097656-21.5zm0 0"></path>
	</symbol>

	<symbol id="icon-cart" viewBox="0 0 512 512">
		<g>
		<g xmlns="http://www.w3.org/2000/svg">
		<g>
			<path d="M509.867,89.6c-2.133-2.133-4.267-4.267-8.533-4.267H96L85.333,29.867c0-4.267-6.4-8.533-10.667-8.533h-64    C4.267,21.333,0,25.6,0,32c0,6.4,4.267,10.667,10.667,10.667h55.467l51.2,260.267c6.4,34.133,38.4,59.733,72.533,59.733H435.2    c6.4,0,10.667-4.267,10.667-10.667c0-6.4-4.267-10.667-10.667-10.667H192c-17.067,0-34.133-8.533-42.667-23.467L460.8,275.2    c4.267,0,8.533-4.267,8.533-8.533L512,96C512,96,512,91.733,509.867,89.6z M450.133,256l-311.467,40.533l-38.4-192H486.4    L450.133,256z" ></path>
		</g>
		</g>
		<g xmlns="http://www.w3.org/2000/svg">
		<g>
			<path d="M181.333,384C151.467,384,128,407.467,128,437.333c0,29.867,23.467,53.333,53.333,53.333    c29.867,0,53.333-23.467,53.333-53.333C234.667,407.467,211.2,384,181.333,384z M181.333,469.333c-17.067,0-32-14.934-32-32    s14.933-32,32-32c17.067,0,32,14.934,32,32S198.4,469.333,181.333,469.333z" ></path>
		</g>
		</g>
	<g xmlns="http://www.w3.org/2000/svg">
		<g>
			<path d="M394.667,384c-29.867,0-53.333,23.467-53.333,53.333c0,29.867,23.467,53.333,53.333,53.333    c29.867,0,53.333-23.467,53.333-53.333C448,407.467,424.533,384,394.667,384z M394.667,469.333c-17.067,0-32-14.934-32-32    s14.933-32,32-32c17.067,0,32,14.934,32,32S411.733,469.333,394.667,469.333z" ></path>
		</g>
		</g>
		</g>
	</symbol>

</svg>
